solid OpenSCAD_Model
  facet normal -1 0 0
    outer loop
      vertex -8.3 -2 5.00005
      vertex -8.3 2 6
      vertex -8.3 2 5.00005
    endloop
  endfacet
  facet normal -1 -0 0
    outer loop
      vertex -8.3 2 6
      vertex -8.3 -2 5.00005
      vertex -8.3 -2 6
    endloop
  endfacet
  facet normal -1 0 0
    outer loop
      vertex -8.3 8.925 0
      vertex -8.3 3 2
      vertex -8.3 8.925 1.75
    endloop
  endfacet
  facet normal -1 0 0
    outer loop
      vertex -8.3 8.925 0
      vertex -8.3 2 1.99995
      vertex -8.3 3 2
    endloop
  endfacet
  facet normal -1 0 0
    outer loop
      vertex -8.3 8.925 0
      vertex -8.3 -2 1.99995
      vertex -8.3 2 1.99995
    endloop
  endfacet
  facet normal -1 0 0
    outer loop
      vertex -8.3 -2 1.99995
      vertex -8.3 -3 2
      vertex -8.3 -2 2
    endloop
  endfacet
  facet normal -1 0 0
    outer loop
      vertex -8.3 -8.925 0
      vertex -8.3 -2 1.99995
      vertex -8.3 8.925 0
    endloop
  endfacet
  facet normal -1 0 0
    outer loop
      vertex -8.3 -8.925 1.75
      vertex -8.3 -3 2
      vertex -8.3 -8.925 0
    endloop
  endfacet
  facet normal -1 -0 0
    outer loop
      vertex -8.3 -2 1.99995
      vertex -8.3 -8.925 0
      vertex -8.3 -3 2
    endloop
  endfacet
  facet normal -1 0 0
    outer loop
      vertex -8.3 8.925 1.75
      vertex -8.3 15.5 7.5
      vertex -8.3 15.5 1.75
    endloop
  endfacet
  facet normal -1 0 0
    outer loop
      vertex -8.3 3 7
      vertex -8.3 8.925 1.75
      vertex -8.3 3 2
    endloop
  endfacet
  facet normal -1 0 0
    outer loop
      vertex -8.3 8.925 1.75
      vertex -8.3 3 7
      vertex -8.3 15.5 7.5
    endloop
  endfacet
  facet normal -1 0 0
    outer loop
      vertex -8.3 -12 7.5
      vertex -8.3 3 7
      vertex -8.3 -3 7
    endloop
  endfacet
  facet normal -1 -0 0
    outer loop
      vertex -8.3 -3 2
      vertex -8.3 -8.925 1.75
      vertex -8.3 -3 7
    endloop
  endfacet
  facet normal -1 0 0
    outer loop
      vertex -8.3 -12 7.5
      vertex -8.3 -8.925 1.75
      vertex -8.3 -12 1.75
    endloop
  endfacet
  facet normal -1 0 0
    outer loop
      vertex -8.3 3 7
      vertex -8.3 -12 7.5
      vertex -8.3 15.5 7.5
    endloop
  endfacet
  facet normal -1 0 0
    outer loop
      vertex -8.3 -8.925 1.75
      vertex -8.3 -12 7.5
      vertex -8.3 -3 7
    endloop
  endfacet
  facet normal -1 -0 0
    outer loop
      vertex -8.3 3 2
      vertex -8.3 2 1.99995
      vertex -8.3 2 2
    endloop
  endfacet
  facet normal 0 0 -1
    outer loop
      vertex -8.3 8.925 1.75
      vertex 8.3 15.5 1.75
      vertex 8.3 8.925 1.75
    endloop
  endfacet
  facet normal -0 0 -1
    outer loop
      vertex 8.3 15.5 1.75
      vertex -8.3 8.925 1.75
      vertex -8.3 15.5 1.75
    endloop
  endfacet
  facet normal 0 0 -1
    outer loop
      vertex -8.3 -12 1.75
      vertex 8.3 -8.925 1.75
      vertex 8.3 -12 1.75
    endloop
  endfacet
  facet normal -0 0 -1
    outer loop
      vertex 8.3 -8.925 1.75
      vertex -8.3 -12 1.75
      vertex -8.3 -8.925 1.75
    endloop
  endfacet
  facet normal 1 -0 0
    outer loop
      vertex 8.3 -2 6
      vertex 8.3 2 5.00005
      vertex 8.3 2 6
    endloop
  endfacet
  facet normal 1 0 0
    outer loop
      vertex 8.3 2 5.00005
      vertex 8.3 -2 6
      vertex 8.3 -2 5.00005
    endloop
  endfacet
  facet normal 1 0 0
    outer loop
      vertex 8.3 -2 2
      vertex 8.3 -3 2
      vertex 8.3 -2 1.99995
    endloop
  endfacet
  facet normal 1 0 0
    outer loop
      vertex 8.3 15.5 7.5
      vertex 8.3 8.925 1.75
      vertex 8.3 15.5 1.75
    endloop
  endfacet
  facet normal 1 -0 0
    outer loop
      vertex 8.3 3 2
      vertex 8.3 8.925 1.75
      vertex 8.3 3 7
    endloop
  endfacet
  facet normal 1 0 0
    outer loop
      vertex 8.3 15.5 7.5
      vertex 8.3 3 7
      vertex 8.3 8.925 1.75
    endloop
  endfacet
  facet normal 1 -0 0
    outer loop
      vertex 8.3 -12 7.5
      vertex 8.3 3 7
      vertex 8.3 15.5 7.5
    endloop
  endfacet
  facet normal 1 0 0
    outer loop
      vertex 8.3 -3 7
      vertex 8.3 -8.925 1.75
      vertex 8.3 -3 2
    endloop
  endfacet
  facet normal 1 0 0
    outer loop
      vertex 8.3 3 7
      vertex 8.3 -12 7.5
      vertex 8.3 -3 7
    endloop
  endfacet
  facet normal 1 0 0
    outer loop
      vertex 8.3 -12 7.5
      vertex 8.3 -8.925 1.75
      vertex 8.3 -3 7
    endloop
  endfacet
  facet normal 1 0 0
    outer loop
      vertex 8.3 -8.925 1.75
      vertex 8.3 -12 7.5
      vertex 8.3 -12 1.75
    endloop
  endfacet
  facet normal 1 0 0
    outer loop
      vertex 8.3 8.925 1.75
      vertex 8.3 3 2
      vertex 8.3 8.925 0
    endloop
  endfacet
  facet normal 1 0 0
    outer loop
      vertex 8.3 2 1.99995
      vertex 8.3 3 2
      vertex 8.3 2 2
    endloop
  endfacet
  facet normal 1 0 0
    outer loop
      vertex 8.3 3 2
      vertex 8.3 2 1.99995
      vertex 8.3 8.925 0
    endloop
  endfacet
  facet normal 1 -0 0
    outer loop
      vertex 8.3 -2 1.99995
      vertex 8.3 8.925 0
      vertex 8.3 2 1.99995
    endloop
  endfacet
  facet normal 1 0 0
    outer loop
      vertex 8.3 -8.925 0
      vertex 8.3 -2 1.99995
      vertex 8.3 -3 2
    endloop
  endfacet
  facet normal 1 0 0
    outer loop
      vertex 8.3 -8.925 0
      vertex 8.3 -3 2
      vertex 8.3 -8.925 1.75
    endloop
  endfacet
  facet normal 1 0 0
    outer loop
      vertex 8.3 -2 1.99995
      vertex 8.3 -8.925 0
      vertex 8.3 8.925 0
    endloop
  endfacet
  facet normal 0 1 -0
    outer loop
      vertex 8.3 8.925 0
      vertex -8.3 8.925 1.75
      vertex 8.3 8.925 1.75
    endloop
  endfacet
  facet normal 0 1 0
    outer loop
      vertex -8.3 8.925 1.75
      vertex 8.3 8.925 0
      vertex -8.3 8.925 0
    endloop
  endfacet
  facet normal 0 0 -1
    outer loop
      vertex 8.3 -8.925 0
      vertex 7.4 -8.2 0
      vertex 8.3 8.925 0
    endloop
  endfacet
  facet normal 0 0 -1
    outer loop
      vertex 8.3 -8.925 0
      vertex -7.4 -8.2 0
      vertex 7.4 -8.2 0
    endloop
  endfacet
  facet normal -0 0 -1
    outer loop
      vertex -7.4 -8.2 0
      vertex -8.3 -8.925 0
      vertex -7.4 8.2 0
    endloop
  endfacet
  facet normal 0 0 -1
    outer loop
      vertex -8.3 -8.925 0
      vertex -7.4 -8.2 0
      vertex 8.3 -8.925 0
    endloop
  endfacet
  facet normal 0 0 -1
    outer loop
      vertex 7.4 8.2 0
      vertex 8.3 8.925 0
      vertex 7.4 -8.2 0
    endloop
  endfacet
  facet normal 0 0 -1
    outer loop
      vertex -7.4 8.2 0
      vertex 8.3 8.925 0
      vertex 7.4 8.2 0
    endloop
  endfacet
  facet normal 0 0 -1
    outer loop
      vertex -7.4 8.2 0
      vertex -8.3 8.925 0
      vertex 8.3 8.925 0
    endloop
  endfacet
  facet normal 0 0 -1
    outer loop
      vertex -8.3 8.925 0
      vertex -7.4 8.2 0
      vertex -8.3 -8.925 0
    endloop
  endfacet
  facet normal 0 -1 0
    outer loop
      vertex -8.3 -8.925 0
      vertex 8.3 -8.925 1.75
      vertex -8.3 -8.925 1.75
    endloop
  endfacet
  facet normal 0 -1 -0
    outer loop
      vertex 8.3 -8.925 1.75
      vertex -8.3 -8.925 0
      vertex 8.3 -8.925 0
    endloop
  endfacet
  facet normal 0 0 -1
    outer loop
      vertex -9.4 -12 7.5
      vertex -8.3 15.5 7.5
      vertex -8.3 -12 7.5
    endloop
  endfacet
  facet normal -0 0 -1
    outer loop
      vertex -8.3 15.5 7.5
      vertex -9.4 -12 7.5
      vertex -9.4 15.5 7.5
    endloop
  endfacet
  facet normal 0 0 -1
    outer loop
      vertex 8.3 -12 7.5
      vertex 9.4 15.5 7.5
      vertex 9.4 -12 7.5
    endloop
  endfacet
  facet normal -0 0 -1
    outer loop
      vertex 9.4 15.5 7.5
      vertex 8.3 -12 7.5
      vertex 8.3 15.5 7.5
    endloop
  endfacet
  facet normal 0 -1 0
    outer loop
      vertex -8.3 -12 1.75
      vertex 8.3 -12 7.5
      vertex -8.3 -12 7.5
    endloop
  endfacet
  facet normal 0 -1 -0
    outer loop
      vertex 8.3 -12 7.5
      vertex -8.3 -12 1.75
      vertex 8.3 -12 1.75
    endloop
  endfacet
  facet normal 0 -1 0
    outer loop
      vertex -8.3 -12 7.5
      vertex -9.4 -12 8.5
      vertex -9.4 -12 7.5
    endloop
  endfacet
  facet normal 0 -1 0
    outer loop
      vertex -9.4 -12 8.5
      vertex -8.3 -12 7.5
      vertex 9.4 -12 8.5
    endloop
  endfacet
  facet normal 0 -1 0
    outer loop
      vertex 8.3 -12 7.5
      vertex 9.4 -12 8.5
      vertex -8.3 -12 7.5
    endloop
  endfacet
  facet normal 0 -1 -0
    outer loop
      vertex 9.4 -12 8.5
      vertex 8.3 -12 7.5
      vertex 9.4 -12 7.5
    endloop
  endfacet
  facet normal 0 -1 0
    outer loop
      vertex -9.4 -12 8.5
      vertex -9.75 -12 10
      vertex -9.75 -12 8.5
    endloop
  endfacet
  facet normal 0 -1 0
    outer loop
      vertex -9.75 -12 10
      vertex -9.4 -12 8.5
      vertex 9.75 -12 10
    endloop
  endfacet
  facet normal 0 -1 0
    outer loop
      vertex 9.4 -12 8.5
      vertex 9.75 -12 10
      vertex -9.4 -12 8.5
    endloop
  endfacet
  facet normal 0 -1 -0
    outer loop
      vertex 9.75 -12 10
      vertex 9.4 -12 8.5
      vertex 9.75 -12 8.5
    endloop
  endfacet
  facet normal 0 1 -0
    outer loop
      vertex 8.3 15.5 1.75
      vertex -8.3 15.5 7.5
      vertex 8.3 15.5 7.5
    endloop
  endfacet
  facet normal 0 1 0
    outer loop
      vertex -8.3 15.5 7.5
      vertex 8.3 15.5 1.75
      vertex -8.3 15.5 1.75
    endloop
  endfacet
  facet normal 0 1 0
    outer loop
      vertex 8.3 15.5 7.5
      vertex 9.4 15.5 8.5
      vertex 9.4 15.5 7.5
    endloop
  endfacet
  facet normal 0 1 0
    outer loop
      vertex 9.4 15.5 8.5
      vertex 8.3 15.5 7.5
      vertex -9.4 15.5 8.5
    endloop
  endfacet
  facet normal 0 1 -0
    outer loop
      vertex -8.3 15.5 7.5
      vertex -9.4 15.5 8.5
      vertex 8.3 15.5 7.5
    endloop
  endfacet
  facet normal 0 1 0
    outer loop
      vertex -9.4 15.5 8.5
      vertex -8.3 15.5 7.5
      vertex -9.4 15.5 7.5
    endloop
  endfacet
  facet normal 0 1 0
    outer loop
      vertex 9.4 15.5 8.5
      vertex 9.75 15.5 10
      vertex 9.75 15.5 8.5
    endloop
  endfacet
  facet normal 0 1 0
    outer loop
      vertex 9.75 15.5 10
      vertex 9.4 15.5 8.5
      vertex -9.75 15.5 10
    endloop
  endfacet
  facet normal 0 1 -0
    outer loop
      vertex -9.4 15.5 8.5
      vertex -9.75 15.5 10
      vertex 9.4 15.5 8.5
    endloop
  endfacet
  facet normal 0 1 0
    outer loop
      vertex -9.75 15.5 10
      vertex -9.4 15.5 8.5
      vertex -9.75 15.5 8.5
    endloop
  endfacet
  facet normal -1 0 0
    outer loop
      vertex -9.4 -12 7.5
      vertex -9.4 15.5 8.5
      vertex -9.4 15.5 7.5
    endloop
  endfacet
  facet normal -1 -0 0
    outer loop
      vertex -9.4 15.5 8.5
      vertex -9.4 -12 7.5
      vertex -9.4 -12 8.5
    endloop
  endfacet
  facet normal 0 0 -1
    outer loop
      vertex -9.75 -12 8.5
      vertex -9.4 15.5 8.5
      vertex -9.4 -12 8.5
    endloop
  endfacet
  facet normal -0 0 -1
    outer loop
      vertex -9.4 15.5 8.5
      vertex -9.75 -12 8.5
      vertex -9.75 15.5 8.5
    endloop
  endfacet
  facet normal 0 0 -1
    outer loop
      vertex 9.4 -12 8.5
      vertex 9.75 15.5 8.5
      vertex 9.75 -12 8.5
    endloop
  endfacet
  facet normal -0 0 -1
    outer loop
      vertex 9.75 15.5 8.5
      vertex 9.4 -12 8.5
      vertex 9.4 15.5 8.5
    endloop
  endfacet
  facet normal 1 -0 0
    outer loop
      vertex 9.4 -12 8.5
      vertex 9.4 15.5 7.5
      vertex 9.4 15.5 8.5
    endloop
  endfacet
  facet normal 1 0 0
    outer loop
      vertex 9.4 15.5 7.5
      vertex 9.4 -12 8.5
      vertex 9.4 -12 7.5
    endloop
  endfacet
  facet normal -1 0 0
    outer loop
      vertex -9.75 -12 8.5
      vertex -9.75 15.5 10
      vertex -9.75 15.5 8.5
    endloop
  endfacet
  facet normal -1 -0 0
    outer loop
      vertex -9.75 15.5 10
      vertex -9.75 -12 8.5
      vertex -9.75 -12 10
    endloop
  endfacet
  facet normal 0 0 1
    outer loop
      vertex 7.4 -8.2 10
      vertex 9.75 15.5 10
      vertex 7.4 11.9 10
    endloop
  endfacet
  facet normal 0 0 1
    outer loop
      vertex 9.75 15.5 10
      vertex -7.4 11.9 10
      vertex 7.4 11.9 10
    endloop
  endfacet
  facet normal 0 0 1
    outer loop
      vertex -7.4 11.9 10
      vertex -9.75 15.5 10
      vertex -7.4 -8.2 10
    endloop
  endfacet
  facet normal -0 0 1
    outer loop
      vertex -9.75 15.5 10
      vertex -7.4 11.9 10
      vertex 9.75 15.5 10
    endloop
  endfacet
  facet normal 0 0 1
    outer loop
      vertex 9.75 15.5 10
      vertex 7.4 -8.2 10
      vertex 9.75 -12 10
    endloop
  endfacet
  facet normal -0 0 1
    outer loop
      vertex -7.4 -8.2 10
      vertex 9.75 -12 10
      vertex 7.4 -8.2 10
    endloop
  endfacet
  facet normal 0 0 1
    outer loop
      vertex -7.4 -8.2 10
      vertex -9.75 -12 10
      vertex 9.75 -12 10
    endloop
  endfacet
  facet normal 0 0 1
    outer loop
      vertex -9.75 -12 10
      vertex -7.4 -8.2 10
      vertex -9.75 15.5 10
    endloop
  endfacet
  facet normal 1 -0 0
    outer loop
      vertex 9.75 -12 10
      vertex 9.75 15.5 8.5
      vertex 9.75 15.5 10
    endloop
  endfacet
  facet normal 1 0 0
    outer loop
      vertex 9.75 15.5 8.5
      vertex 9.75 -12 10
      vertex 9.75 -12 8.5
    endloop
  endfacet
  facet normal 0 0 -1
    outer loop
      vertex 7.4 -3 7
      vertex 8.3 3 7
      vertex 8.3 -3 7
    endloop
  endfacet
  facet normal -0 0 -1
    outer loop
      vertex 8.3 3 7
      vertex 7.4 -3 7
      vertex 7.4 3 7
    endloop
  endfacet
  facet normal 0 -1 0
    outer loop
      vertex 7.4 3 2
      vertex 8.3 3 7
      vertex 7.4 3 7
    endloop
  endfacet
  facet normal 0 -1 -0
    outer loop
      vertex 8.3 3 7
      vertex 7.4 3 2
      vertex 8.3 3 2
    endloop
  endfacet
  facet normal 0 0 1
    outer loop
      vertex 8.3 3 2
      vertex 7.5 2 2
      vertex 8.3 2 2
    endloop
  endfacet
  facet normal 0 0 1
    outer loop
      vertex 7.5 2 2
      vertex 7.4 3 2
      vertex 7.5 -2 2
    endloop
  endfacet
  facet normal -0 0 1
    outer loop
      vertex 7.4 3 2
      vertex 7.5 2 2
      vertex 8.3 3 2
    endloop
  endfacet
  facet normal -0 0 1
    outer loop
      vertex 7.5 -2 2
      vertex 8.3 -3 2
      vertex 8.3 -2 2
    endloop
  endfacet
  facet normal 0 0 1
    outer loop
      vertex 7.5 -2 2
      vertex 7.4 -3 2
      vertex 8.3 -3 2
    endloop
  endfacet
  facet normal 0 0 1
    outer loop
      vertex 7.4 -3 2
      vertex 7.5 -2 2
      vertex 7.4 3 2
    endloop
  endfacet
  facet normal 0 1 -0
    outer loop
      vertex 8.3 -3 2
      vertex 7.4 -3 7
      vertex 8.3 -3 7
    endloop
  endfacet
  facet normal 0 1 0
    outer loop
      vertex 7.4 -3 7
      vertex 8.3 -3 2
      vertex 7.4 -3 2
    endloop
  endfacet
  facet normal 0 0 -1
    outer loop
      vertex -8.3 -3 7
      vertex -7.4 3 7
      vertex -7.4 -3 7
    endloop
  endfacet
  facet normal -0 0 -1
    outer loop
      vertex -7.4 3 7
      vertex -8.3 -3 7
      vertex -8.3 3 7
    endloop
  endfacet
  facet normal 0 -1 0
    outer loop
      vertex -8.3 3 2
      vertex -7.4 3 7
      vertex -8.3 3 7
    endloop
  endfacet
  facet normal 0 -1 -0
    outer loop
      vertex -7.4 3 7
      vertex -8.3 3 2
      vertex -7.4 3 2
    endloop
  endfacet
  facet normal 0 0 1
    outer loop
      vertex -7.4 3 2
      vertex -7.5 2 2
      vertex -7.4 -3 2
    endloop
  endfacet
  facet normal -0 0 1
    outer loop
      vertex -8.3 3 2
      vertex -7.5 2 2
      vertex -7.4 3 2
    endloop
  endfacet
  facet normal 0 0 1
    outer loop
      vertex -7.5 2 2
      vertex -8.3 3 2
      vertex -8.3 2 2
    endloop
  endfacet
  facet normal -0 0 1
    outer loop
      vertex -7.5 -2 2
      vertex -7.4 -3 2
      vertex -7.5 2 2
    endloop
  endfacet
  facet normal 0 0 1
    outer loop
      vertex -8.3 -3 2
      vertex -7.5 -2 2
      vertex -8.3 -2 2
    endloop
  endfacet
  facet normal 0 0 1
    outer loop
      vertex -7.5 -2 2
      vertex -8.3 -3 2
      vertex -7.4 -3 2
    endloop
  endfacet
  facet normal 0 1 -0
    outer loop
      vertex -7.4 -3 2
      vertex -8.3 -3 7
      vertex -7.4 -3 7
    endloop
  endfacet
  facet normal 0 1 0
    outer loop
      vertex -8.3 -3 7
      vertex -7.4 -3 2
      vertex -8.3 -3 2
    endloop
  endfacet
  facet normal -1 0 0
    outer loop
      vertex 7.5 -2 2
      vertex 7.5 2 6
      vertex 7.5 2 2
    endloop
  endfacet
  facet normal -1 -0 0
    outer loop
      vertex 7.5 2 6
      vertex 7.5 -2 2
      vertex 7.5 -2 6
    endloop
  endfacet
  facet normal -0 0 1
    outer loop
      vertex 7.5 2 6
      vertex 8.3 -2 6
      vertex 8.3 2 6
    endloop
  endfacet
  facet normal 0 0 1
    outer loop
      vertex 8.3 -2 6
      vertex 7.5 2 6
      vertex 7.5 -2 6
    endloop
  endfacet
  facet normal 0 1 0
    outer loop
      vertex 9.25 2 5.00005
      vertex 9.25 2 4.99995
      vertex 8.3 2 5.00005
    endloop
  endfacet
  facet normal 0 1 -0
    outer loop
      vertex 8.3 2 5.00005
      vertex 7.5 2 6
      vertex 8.3 2 6
    endloop
  endfacet
  facet normal 0 1 0
    outer loop
      vertex 8.3 2 2
      vertex 8.3 2 5.00005
      vertex 9.25 2 4.99995
    endloop
  endfacet
  facet normal 0 1 0
    outer loop
      vertex 7.5 2 2
      vertex 8.3 2 5.00005
      vertex 8.3 2 2
    endloop
  endfacet
  facet normal 0 1 0
    outer loop
      vertex 8.3 2 5.00005
      vertex 7.5 2 2
      vertex 7.5 2 6
    endloop
  endfacet
  facet normal 0 1 0
    outer loop
      vertex 9.25 2 4.99995
      vertex 8.3 2 1.99995
      vertex 8.3 2 2
    endloop
  endfacet
  facet normal 0 -1 0
    outer loop
      vertex 7.5 -2 6
      vertex 8.3 -2 5.00005
      vertex 8.3 -2 6
    endloop
  endfacet
  facet normal 0 -1 0
    outer loop
      vertex 8.3 -2 5.00005
      vertex 9.25 -2 4.99995
      vertex 9.25 -2 5.00005
    endloop
  endfacet
  facet normal 0 -1 0
    outer loop
      vertex 7.5 -2 2
      vertex 8.3 -2 5.00005
      vertex 7.5 -2 6
    endloop
  endfacet
  facet normal 0 -1 0
    outer loop
      vertex 8.3 -2 2
      vertex 8.3 -2 5.00005
      vertex 7.5 -2 2
    endloop
  endfacet
  facet normal 0 -1 0
    outer loop
      vertex 8.3 -2 5.00005
      vertex 8.3 -2 2
      vertex 9.25 -2 4.99995
    endloop
  endfacet
  facet normal 0 -1 0
    outer loop
      vertex 9.25 -2 4.99995
      vertex 8.3 -2 2
      vertex 8.3 -2 1.99995
    endloop
  endfacet
  facet normal -0 0 1
    outer loop
      vertex -8.3 2 6
      vertex -7.5 -2 6
      vertex -7.5 2 6
    endloop
  endfacet
  facet normal 0 0 1
    outer loop
      vertex -7.5 -2 6
      vertex -8.3 2 6
      vertex -8.3 -2 6
    endloop
  endfacet
  facet normal 1 -0 0
    outer loop
      vertex -7.5 -2 6
      vertex -7.5 2 2
      vertex -7.5 2 6
    endloop
  endfacet
  facet normal 1 0 0
    outer loop
      vertex -7.5 2 2
      vertex -7.5 -2 6
      vertex -7.5 -2 2
    endloop
  endfacet
  facet normal 0 1 0
    outer loop
      vertex -7.5 2 6
      vertex -8.3 2 5.00005
      vertex -8.3 2 6
    endloop
  endfacet
  facet normal 0 1 0
    outer loop
      vertex -8.3 2 5.00005
      vertex -9.25 2 4.99995
      vertex -9.25 2 5.00005
    endloop
  endfacet
  facet normal 0 1 -0
    outer loop
      vertex -7.5 2 2
      vertex -8.3 2 5.00005
      vertex -7.5 2 6
    endloop
  endfacet
  facet normal 0 1 0
    outer loop
      vertex -8.3 2 2
      vertex -8.3 2 5.00005
      vertex -7.5 2 2
    endloop
  endfacet
  facet normal 0 1 0
    outer loop
      vertex -8.3 2 5.00005
      vertex -8.3 2 2
      vertex -9.25 2 4.99995
    endloop
  endfacet
  facet normal 0 1 0
    outer loop
      vertex -9.25 2 4.99995
      vertex -8.3 2 2
      vertex -8.3 2 1.99995
    endloop
  endfacet
  facet normal 0 -1 0
    outer loop
      vertex -9.25 -2 5.00005
      vertex -9.25 -2 4.99995
      vertex -8.3 -2 5.00005
    endloop
  endfacet
  facet normal 0 -1 0
    outer loop
      vertex -8.3 -2 5.00005
      vertex -7.5 -2 6
      vertex -8.3 -2 6
    endloop
  endfacet
  facet normal 0 -1 0
    outer loop
      vertex -8.3 -2 2
      vertex -8.3 -2 5.00005
      vertex -9.25 -2 4.99995
    endloop
  endfacet
  facet normal 0 -1 0
    outer loop
      vertex -7.5 -2 2
      vertex -8.3 -2 5.00005
      vertex -8.3 -2 2
    endloop
  endfacet
  facet normal 0 -1 0
    outer loop
      vertex -8.3 -2 5.00005
      vertex -7.5 -2 2
      vertex -7.5 -2 6
    endloop
  endfacet
  facet normal 0 -1 0
    outer loop
      vertex -9.25 -2 4.99995
      vertex -8.3 -2 1.99995
      vertex -8.3 -2 2
    endloop
  endfacet
  facet normal -0 0 1
    outer loop
      vertex 8.3 2 5.00005
      vertex 9.25 -2 5.00005
      vertex 9.25 2 5.00005
    endloop
  endfacet
  facet normal 0 0 1
    outer loop
      vertex 9.25 -2 5.00005
      vertex 8.3 2 5.00005
      vertex 8.3 -2 5.00005
    endloop
  endfacet
  facet normal 0.953342 0 -0.301892
    outer loop
      vertex 9.25 -2 4.99995
      vertex 8.3 2 1.99995
      vertex 9.25 2 4.99995
    endloop
  endfacet
  facet normal 0.953342 0 -0.301892
    outer loop
      vertex 8.3 2 1.99995
      vertex 9.25 -2 4.99995
      vertex 8.3 -2 1.99995
    endloop
  endfacet
  facet normal 1 -0 0
    outer loop
      vertex 9.25 -2 5.00005
      vertex 9.25 2 4.99995
      vertex 9.25 2 5.00005
    endloop
  endfacet
  facet normal 1 0 0
    outer loop
      vertex 9.25 2 4.99995
      vertex 9.25 -2 5.00005
      vertex 9.25 -2 4.99995
    endloop
  endfacet
  facet normal -0 0 1
    outer loop
      vertex -9.25 2 5.00005
      vertex -8.3 -2 5.00005
      vertex -8.3 2 5.00005
    endloop
  endfacet
  facet normal 0 0 1
    outer loop
      vertex -8.3 -2 5.00005
      vertex -9.25 2 5.00005
      vertex -9.25 -2 5.00005
    endloop
  endfacet
  facet normal -1 0 0
    outer loop
      vertex -9.25 -2 4.99995
      vertex -9.25 2 5.00005
      vertex -9.25 2 4.99995
    endloop
  endfacet
  facet normal -1 -0 0
    outer loop
      vertex -9.25 2 5.00005
      vertex -9.25 -2 4.99995
      vertex -9.25 -2 5.00005
    endloop
  endfacet
  facet normal -0.953342 0 -0.301892
    outer loop
      vertex -8.3 -2 1.99995
      vertex -9.25 2 4.99995
      vertex -8.3 2 1.99995
    endloop
  endfacet
  facet normal -0.953342 -0 -0.301892
    outer loop
      vertex -9.25 2 4.99995
      vertex -8.3 -2 1.99995
      vertex -9.25 -2 4.99995
    endloop
  endfacet
  facet normal 1 -0 0
    outer loop
      vertex -7.4 -10 8.2
      vertex -7.4 -8.2 5
      vertex -7.4 -8.2 8.2
    endloop
  endfacet
  facet normal 1 0 0
    outer loop
      vertex -7.4 -8.2 5
      vertex -7.4 -10 8.2
      vertex -7.4 -10 5
    endloop
  endfacet
  facet normal 1 0 0
    outer loop
      vertex -7.4 11.9 10
      vertex -7.4 8.2 5
      vertex -7.4 11.9 8.2
    endloop
  endfacet
  facet normal 1 0 0
    outer loop
      vertex -7.4 3 2
      vertex -7.4 8.2 5
      vertex -7.4 3 7
    endloop
  endfacet
  facet normal 1 0 0
    outer loop
      vertex -7.4 11.9 10
      vertex -7.4 3 7
      vertex -7.4 8.2 5
    endloop
  endfacet
  facet normal 1 -0 0
    outer loop
      vertex -7.4 -8.2 10
      vertex -7.4 3 7
      vertex -7.4 11.9 10
    endloop
  endfacet
  facet normal 1 -0 0
    outer loop
      vertex -7.4 -8.2 8.2
      vertex -7.4 -3 7
      vertex -7.4 -8.2 10
    endloop
  endfacet
  facet normal 1 0 0
    outer loop
      vertex -7.4 3 7
      vertex -7.4 -8.2 10
      vertex -7.4 -3 7
    endloop
  endfacet
  facet normal 1 -0 0
    outer loop
      vertex -7.4 11.9 8.2
      vertex -7.4 13.5 5
      vertex -7.4 13.5 8.2
    endloop
  endfacet
  facet normal 1 0 0
    outer loop
      vertex -7.4 13.5 5
      vertex -7.4 11.9 8.2
      vertex -7.4 8.2 5
    endloop
  endfacet
  facet normal 1 0 0
    outer loop
      vertex -7.4 8.2 5
      vertex -7.4 3 2
      vertex -7.4 8.2 0
    endloop
  endfacet
  facet normal 1 -0 0
    outer loop
      vertex -7.4 -3 2
      vertex -7.4 8.2 0
      vertex -7.4 3 2
    endloop
  endfacet
  facet normal 1 0 0
    outer loop
      vertex -7.4 -8.2 5
      vertex -7.4 -3 7
      vertex -7.4 -8.2 8.2
    endloop
  endfacet
  facet normal 1 0 0
    outer loop
      vertex -7.4 -3 7
      vertex -7.4 -8.2 5
      vertex -7.4 -3 2
    endloop
  endfacet
  facet normal 1 0 0
    outer loop
      vertex -7.4 -3 2
      vertex -7.4 -8.2 0
      vertex -7.4 8.2 0
    endloop
  endfacet
  facet normal 1 0 0
    outer loop
      vertex -7.4 -8.2 0
      vertex -7.4 -3 2
      vertex -7.4 -8.2 5
    endloop
  endfacet
  facet normal -0 0 1
    outer loop
      vertex -7.4 -8.2 5
      vertex 7.4 -10 5
      vertex 7.4 -8.2 5
    endloop
  endfacet
  facet normal 0 0 1
    outer loop
      vertex 7.4 -10 5
      vertex -7.4 -8.2 5
      vertex -7.4 -10 5
    endloop
  endfacet
  facet normal -0 0 1
    outer loop
      vertex -7.4 13.5 5
      vertex 7.4 8.2 5
      vertex 7.4 13.5 5
    endloop
  endfacet
  facet normal 0 0 1
    outer loop
      vertex 7.4 8.2 5
      vertex -7.4 13.5 5
      vertex -7.4 8.2 5
    endloop
  endfacet
  facet normal -1 0 0
    outer loop
      vertex 7.4 -10 5
      vertex 7.4 -8.2 8.2
      vertex 7.4 -8.2 5
    endloop
  endfacet
  facet normal -1 -0 0
    outer loop
      vertex 7.4 -8.2 8.2
      vertex 7.4 -10 5
      vertex 7.4 -10 8.2
    endloop
  endfacet
  facet normal -1 0 0
    outer loop
      vertex 7.4 8.2 0
      vertex 7.4 3 2
      vertex 7.4 8.2 5
    endloop
  endfacet
  facet normal -1 0 0
    outer loop
      vertex 7.4 8.2 0
      vertex 7.4 -3 2
      vertex 7.4 3 2
    endloop
  endfacet
  facet normal -1 0 0
    outer loop
      vertex 7.4 -8.2 5
      vertex 7.4 -3 2
      vertex 7.4 -8.2 0
    endloop
  endfacet
  facet normal -1 0 0
    outer loop
      vertex 7.4 -8.2 0
      vertex 7.4 -3 2
      vertex 7.4 8.2 0
    endloop
  endfacet
  facet normal -1 0 0
    outer loop
      vertex 7.4 13.5 5
      vertex 7.4 11.9 8.2
      vertex 7.4 13.5 8.2
    endloop
  endfacet
  facet normal -1 0 0
    outer loop
      vertex 7.4 8.2 5
      vertex 7.4 11.9 8.2
      vertex 7.4 13.5 5
    endloop
  endfacet
  facet normal -1 0 0
    outer loop
      vertex 7.4 8.2 5
      vertex 7.4 11.9 10
      vertex 7.4 11.9 8.2
    endloop
  endfacet
  facet normal -1 0 0
    outer loop
      vertex 7.4 3 7
      vertex 7.4 8.2 5
      vertex 7.4 3 2
    endloop
  endfacet
  facet normal -1 0 0
    outer loop
      vertex 7.4 8.2 5
      vertex 7.4 3 7
      vertex 7.4 11.9 10
    endloop
  endfacet
  facet normal -1 0 0
    outer loop
      vertex 7.4 -8.2 10
      vertex 7.4 3 7
      vertex 7.4 -3 7
    endloop
  endfacet
  facet normal -1 0 0
    outer loop
      vertex 7.4 -3 2
      vertex 7.4 -8.2 5
      vertex 7.4 -3 7
    endloop
  endfacet
  facet normal -1 0 0
    outer loop
      vertex 7.4 -8.2 8.2
      vertex 7.4 -3 7
      vertex 7.4 -8.2 5
    endloop
  endfacet
  facet normal -1 0 0
    outer loop
      vertex 7.4 -8.2 10
      vertex 7.4 -3 7
      vertex 7.4 -8.2 8.2
    endloop
  endfacet
  facet normal -1 0 0
    outer loop
      vertex 7.4 3 7
      vertex 7.4 -8.2 10
      vertex 7.4 11.9 10
    endloop
  endfacet
  facet normal 0 -1 0
    outer loop
      vertex -7.4 8.2 0
      vertex 7.4 8.2 5
      vertex -7.4 8.2 5
    endloop
  endfacet
  facet normal 0 -1 -0
    outer loop
      vertex 7.4 8.2 5
      vertex -7.4 8.2 0
      vertex 7.4 8.2 0
    endloop
  endfacet
  facet normal 0 1 -0
    outer loop
      vertex 7.4 -8.2 0
      vertex -7.4 -8.2 5
      vertex 7.4 -8.2 5
    endloop
  endfacet
  facet normal 0 1 0
    outer loop
      vertex -7.4 -8.2 5
      vertex 7.4 -8.2 0
      vertex -7.4 -8.2 0
    endloop
  endfacet
  facet normal 0 0 -1
    outer loop
      vertex -7.4 -10 8.2
      vertex 7.4 -8.2 8.2
      vertex 7.4 -10 8.2
    endloop
  endfacet
  facet normal -0 0 -1
    outer loop
      vertex 7.4 -8.2 8.2
      vertex -7.4 -10 8.2
      vertex -7.4 -8.2 8.2
    endloop
  endfacet
  facet normal 0 0 -1
    outer loop
      vertex -7.4 11.9 8.2
      vertex 7.4 13.5 8.2
      vertex 7.4 11.9 8.2
    endloop
  endfacet
  facet normal -0 0 -1
    outer loop
      vertex 7.4 13.5 8.2
      vertex -7.4 11.9 8.2
      vertex -7.4 13.5 8.2
    endloop
  endfacet
  facet normal 0 -1 0
    outer loop
      vertex -7.4 13.5 5
      vertex 7.4 13.5 8.2
      vertex -7.4 13.5 8.2
    endloop
  endfacet
  facet normal 0 -1 -0
    outer loop
      vertex 7.4 13.5 8.2
      vertex -7.4 13.5 5
      vertex 7.4 13.5 5
    endloop
  endfacet
  facet normal 0 1 -0
    outer loop
      vertex 7.4 -10 5
      vertex -7.4 -10 8.2
      vertex 7.4 -10 8.2
    endloop
  endfacet
  facet normal 0 1 0
    outer loop
      vertex -7.4 -10 8.2
      vertex 7.4 -10 5
      vertex -7.4 -10 5
    endloop
  endfacet
  facet normal 0 -1 0
    outer loop
      vertex -7.4 11.9 8.2
      vertex 7.4 11.9 10
      vertex -7.4 11.9 10
    endloop
  endfacet
  facet normal 0 -1 -0
    outer loop
      vertex 7.4 11.9 10
      vertex -7.4 11.9 8.2
      vertex 7.4 11.9 8.2
    endloop
  endfacet
  facet normal 0 1 -0
    outer loop
      vertex 7.4 -8.2 8.2
      vertex -7.4 -8.2 10
      vertex 7.4 -8.2 10
    endloop
  endfacet
  facet normal 0 1 0
    outer loop
      vertex -7.4 -8.2 10
      vertex 7.4 -8.2 8.2
      vertex -7.4 -8.2 8.2
    endloop
  endfacet
endsolid OpenSCAD_Model
